<svg width="64" height="64" viewBox="0 0 64 64" fill="none" xmlns="http://www.w3.org/2000/svg">
<path d="M11 12C11 9.79086 12.7909 8 15 8H27C29.2091 8 31 9.79086 31 12V27C31 29.2091 29.2091 31 27 31H15C12.7909 31 11 29.2091 11 27V12Z" fill="#FF9E3B"/>
<path d="M11 37C11 34.7909 12.7909 33 15 33H27C29.2091 33 31 34.7909 31 37V52C31 54.2091 29.2091 56 27 56H15C12.7909 56 11 54.2091 11 52V37Z" fill="#F28514"/>
<path d="M33 12C33 9.79086 34.7909 8 37 8H49C51.2091 8 53 9.79086 53 12V27C53 29.2091 51.2091 31 49 31H37C34.7909 31 33 29.2091 33 27V12Z" fill="#F28514"/>
<path d="M33 37C33 34.7909 34.7909 33 37 33H49C51.2091 33 53 34.7909 53 37V52C53 54.2091 51.2091 56 49 56H37C34.7909 56 33 54.2091 33 52V37Z" fill="#FF9E3B"/>
<g filter="url(#filter0_d_1_8)">
<path d="M38.4998 15L47.4999 24" stroke="white" stroke-width="3" stroke-linecap="round" stroke-linejoin="round"/>
</g>
<g filter="url(#filter1_d_1_8)">
<path d="M47.5002 15L38.5001 24" stroke="white" stroke-width="3" stroke-linecap="round" stroke-linejoin="round"/>
</g>
<defs>
<filter id="filter0_d_1_8" x="33.9998" y="11.5" width="18" height="18" filterUnits="userSpaceOnUse" color-interpolation-filters="sRGB">
<feFlood flood-opacity="0" result="BackgroundImageFix"/>
<feColorMatrix in="SourceAlpha" type="matrix" values="0 0 0 0 0 0 0 0 0 0 0 0 0 0 0 0 0 0 127 0" result="hardAlpha"/>
<feOffset dy="1"/>
<feGaussianBlur stdDeviation="1.5"/>
<feComposite in2="hardAlpha" operator="out"/>
<feColorMatrix type="matrix" values="0 0 0 0 0.854902 0 0 0 0 0.4 0 0 0 0 0.239216 0 0 0 0.4 0"/>
<feBlend mode="normal" in2="BackgroundImageFix" result="effect1_dropShadow_1_8"/>
<feBlend mode="normal" in="SourceGraphic" in2="effect1_dropShadow_1_8" result="shape"/>
</filter>
<filter id="filter1_d_1_8" x="34.0001" y="11.5" width="18" height="18" filterUnits="userSpaceOnUse" color-interpolation-filters="sRGB">
<feFlood flood-opacity="0" result="BackgroundImageFix"/>
<feColorMatrix in="SourceAlpha" type="matrix" values="0 0 0 0 0 0 0 0 0 0 0 0 0 0 0 0 0 0 127 0" result="hardAlpha"/>
<feOffset dy="1"/>
<feGaussianBlur stdDeviation="1.5"/>
<feComposite in2="hardAlpha" operator="out"/>
<feColorMatrix type="matrix" values="0 0 0 0 0.854902 0 0 0 0 0.4 0 0 0 0 0.239216 0 0 0 0.4 0"/>
<feBlend mode="normal" in2="BackgroundImageFix" result="effect1_dropShadow_1_8"/>
<feBlend mode="normal" in="SourceGraphic" in2="effect1_dropShadow_1_8" result="shape"/>
</filter>
</defs>
</svg>
