<svg width="64" height="64" viewBox="0 0 64 64" fill="none" xmlns="http://www.w3.org/2000/svg">
<path d="M50 10C50 7.79086 48.2091 6 46 6H14C11.7909 6 10 7.79086 10 10V47C10 49.2091 11.7909 51 14 51H46C48.2091 51 50 49.2091 50 47V10Z" fill="#2DB49B"/>
<path d="M10 10C10 7.79086 11.7909 6 14 6H46C48.2091 6 50 7.79086 50 10V21H10V10Z" fill="#30C0A8"/>
<path d="M30.3861 26.6385L34.7003 20.7065C35.546 19.5437 37.2789 19.5449 38.1246 20.7078L42.4366 26.6368C43.4546 28.0365 42.4547 30 40.724 30H32.1C30.3693 30 29.3682 28.0382 30.3861 26.6385Z" fill="white"/>
<path d="M15.1097 26.774L22.4346 14.9146C23.2621 13.5748 25.209 13.5772 26.0365 14.917L35.3525 30H16.9142C15.2559 30 14.2383 28.1848 15.1097 26.774Z" fill="white"/>
<circle cx="32.7057" cy="15.7057" r="2.64706" fill="white"/>
<path d="M10 47C10 49.2091 11.7909 51 14 51H46C48.2091 51 50 49.2091 50 47V36H10V47Z" fill="#2AAA93"/>
<g filter="url(#filter0_d_1029_9746)">
<path d="M35 38C35 35.7909 36.7909 34 39 34H55C57.2091 34 59 35.7909 59 38V54C59 56.2091 57.2091 58 55 58H39C36.7909 58 35 56.2091 35 54V38Z" fill="url(#paint0_linear_1029_9746)"/>
</g>
<path d="M53.0318 47.0322L48.9995 43M53.0318 47.0322L48.9995 51M53.0318 47.0322L42.0317 47.0322C40.9272 47.0322 40.0317 46.1368 40.0317 45.0322L40.0317 41" stroke="white" stroke-width="2.5" stroke-linecap="round" stroke-linejoin="round"/>
<defs>
<filter id="filter0_d_1029_9746" x="31" y="30" width="32" height="32" filterUnits="userSpaceOnUse" color-interpolation-filters="sRGB">
<feFlood flood-opacity="0" result="BackgroundImageFix"/>
<feColorMatrix in="SourceAlpha" type="matrix" values="0 0 0 0 0 0 0 0 0 0 0 0 0 0 0 0 0 0 127 0" result="hardAlpha"/>
<feOffset/>
<feGaussianBlur stdDeviation="2"/>
<feComposite in2="hardAlpha" operator="out"/>
<feColorMatrix type="matrix" values="0 0 0 0 0.114423 0 0 0 0 0.51 0 0 0 0 0.287692 0 0 0 0.4 0"/>
<feBlend mode="normal" in2="BackgroundImageFix" result="effect1_dropShadow_1029_9746"/>
<feBlend mode="normal" in="SourceGraphic" in2="effect1_dropShadow_1029_9746" result="shape"/>
</filter>
<linearGradient id="paint0_linear_1029_9746" x1="47" y1="34" x2="47" y2="58" gradientUnits="userSpaceOnUse">
<stop offset="0.0610702" stop-color="#2DCDB0"/>
<stop offset="1" stop-color="#1D8E7A"/>
</linearGradient>
</defs>
</svg>
