<svg xmlns="http://www.w3.org/2000/svg" width="80" height="80" viewBox="0 0 80 80" fill="none">
    <path d="M65 29H15V48H65V29Z" fill="#FB703F"/>
    <path d="M65 47H15V61C15 63.7614 17.2386 66 20 66H60C62.7614 66 65 63.7614 65 61V47Z" fill="#FB622B"/>
    <path d="M65 15C65 12.2386 62.7614 10 60 10H20C17.2386 10 15 12.2386 15 15V29H65V15Z" fill="#FB875D"/>
    <g filter="url(#filter0_d_2290_17004)">
    <path d="M53.9433 35.674L50.9379 47.178C50.8259 47.6707 50.5507 48.1107 50.1574 48.4259C49.764 48.7411 49.2758 48.9127 48.7726 48.9128H34.5729V32.9485H36.0312C38.5498 32.9485 40.5902 29.1429 40.5902 26.6129C40.5902 25.1693 41.7543 24 43.1914 24H43.4052C44.8423 24 46.0064 25.1693 46.0064 26.6129V32.9485H51.7802C53.2046 32.9485 54.2608 34.2772 53.9433 35.674ZM32.503 49H28.1789C27.527 49 27 48.4706 27 47.8158V34.239C27 33.5841 27.527 33.0548 28.1789 33.0548H32.503V49Z" fill="white"/>
    </g>
    <defs>
    <filter id="filter0_d_2290_17004" x="27" y="24" width="28.1111" height="26.1111" filterUnits="userSpaceOnUse" color-interpolation-filters="sRGB">
    <feFlood flood-opacity="0" result="BackgroundImageFix"/>
    <feColorMatrix in="SourceAlpha" type="matrix" values="0 0 0 0 0 0 0 0 0 0 0 0 0 0 0 0 0 0 127 0" result="hardAlpha"/>
    <feOffset dx="0.555556" dy="0.555556"/>
    <feGaussianBlur stdDeviation="0.277778"/>
    <feColorMatrix type="matrix" values="0 0 0 0 0.8125 0 0 0 0 0.217334 0 0 0 0 0.00338542 0 0 0 0.38 0"/>
    <feBlend mode="multiply" in2="BackgroundImageFix" result="effect1_dropShadow_2290_17004"/>
    <feBlend mode="normal" in="SourceGraphic" in2="effect1_dropShadow_2290_17004" result="shape"/>
    </filter>
    </defs>
</svg>