<svg width="192" height="32" viewBox="0 0 192 32" fill="none" xmlns="http://www.w3.org/2000/svg">
<path d="M15.0836 2.09886C15.4328 1.29907 16.5672 1.29907 16.9164 2.09886L20.1288 9.45592C20.2739 9.78805 20.5872 10.0157 20.9479 10.051L28.9376 10.8327C29.8061 10.9177 30.1567 11.9966 29.504 12.5759L23.4997 17.9045C23.2286 18.1451 23.1089 18.5135 23.1868 18.8674L24.9123 26.7076C25.0999 27.5599 24.1821 28.2267 23.4295 27.7849L16.5062 23.7211C16.1937 23.5377 15.8063 23.5377 15.4938 23.7211L8.57054 27.7849C7.81791 28.2267 6.90012 27.5599 7.08769 26.7076L8.81319 18.8674C8.89109 18.5135 8.77139 18.1451 8.50033 17.9045L2.49604 12.5759C1.8433 11.9966 2.19387 10.9177 3.06243 10.8327L11.0521 10.051C11.4128 10.0157 11.7261 9.78805 11.8712 9.45592L15.0836 2.09886Z" fill="#FF6B00"></path>
<path d="M55.0836 2.09886C55.4328 1.29907 56.5672 1.29907 56.9164 2.09886L60.1288 9.45592C60.2739 9.78805 60.5872 10.0157 60.9479 10.051L68.9376 10.8327C69.8061 10.9177 70.1567 11.9966 69.504 12.5759L63.4997 17.9045C63.2286 18.1451 63.1089 18.5135 63.1868 18.8674L64.9123 26.7076C65.0999 27.5599 64.1821 28.2267 63.4295 27.7849L56.5062 23.7211C56.1937 23.5377 55.8063 23.5377 55.4938 23.7211L48.5705 27.7849C47.8179 28.2267 46.9001 27.5599 47.0877 26.7076L48.8132 18.8674C48.8911 18.5135 48.7714 18.1451 48.5003 17.9045L42.496 12.5759C41.8433 11.9966 42.1939 10.9177 43.0624 10.8327L51.0521 10.051C51.4128 10.0157 51.7261 9.78805 51.8712 9.45592L55.0836 2.09886Z" fill="#FF6B00"></path>
<path d="M95.0836 2.09886C95.4328 1.29907 96.5672 1.29907 96.9164 2.09886L100.129 9.45592C100.274 9.78805 100.587 10.0157 100.948 10.051L108.938 10.8327C109.806 10.9177 110.157 11.9966 109.504 12.5759L103.5 17.9045C103.229 18.1451 103.109 18.5135 103.187 18.8674L104.912 26.7076C105.1 27.5599 104.182 28.2267 103.429 27.7849L96.5062 23.7211C96.1937 23.5377 95.8063 23.5377 95.4938 23.7211L88.5705 27.7849C87.8179 28.2267 86.9001 27.5599 87.0877 26.7076L88.8132 18.8674C88.8911 18.5135 88.7714 18.1451 88.5003 17.9045L82.496 12.5759C81.8433 11.9966 82.1939 10.9177 83.0624 10.8327L91.0521 10.051C91.4128 10.0157 91.7261 9.78805 91.8712 9.45592L95.0836 2.09886Z" fill="#FF6B00"></path>
<path d="M135.084 2.09886C135.433 1.29907 136.567 1.29907 136.916 2.09886L140.129 9.45592C140.274 9.78805 140.587 10.0157 140.948 10.051L148.938 10.8327C149.806 10.9177 150.157 11.9966 149.504 12.5759L143.5 17.9045C143.229 18.1451 143.109 18.5135 143.187 18.8674L144.912 26.7076C145.1 27.5599 144.182 28.2267 143.429 27.7849L136.506 23.7211C136.194 23.5377 135.806 23.5377 135.494 23.7211L128.571 27.7849C127.818 28.2267 126.9 27.5599 127.088 26.7076L128.813 18.8674C128.891 18.5135 128.771 18.1451 128.5 17.9045L122.496 12.5759C121.843 11.9966 122.194 10.9177 123.062 10.8327L131.052 10.051C131.413 10.0157 131.726 9.78805 131.871 9.45592L135.084 2.09886Z" fill="#FF6B00"></path>
<path d="M175.084 2.09886C175.433 1.29907 176.567 1.29907 176.916 2.09886L180.129 9.45592C180.274 9.78805 180.587 10.0157 180.948 10.051L188.938 10.8327C189.806 10.9177 190.157 11.9966 189.504 12.5759L183.5 17.9045C183.229 18.1451 183.109 18.5135 183.187 18.8674L184.912 26.7076C185.1 27.5599 184.182 28.2267 183.429 27.7849L176.506 23.7211C176.194 23.5377 175.806 23.5377 175.494 23.7211L168.571 27.7849C167.818 28.2267 166.9 27.5599 167.088 26.7076L168.813 18.8674C168.891 18.5135 168.771 18.1451 168.5 17.9045L162.496 12.5759C161.843 11.9966 162.194 10.9177 163.062 10.8327L171.052 10.051C171.413 10.0157 171.726 9.78805 171.871 9.45592L175.084 2.09886Z" fill="#C9C9C9"></path>
<mask id="mask0_1663_10478" style="mask-type:alpha" maskUnits="userSpaceOnUse" x="162" y="1" width="28" height="27">
<path d="M175.084 2.09886C175.433 1.29907 176.567 1.29907 176.916 2.09886L180.129 9.45592C180.274 9.78805 180.587 10.0157 180.948 10.051L188.938 10.8327C189.806 10.9177 190.157 11.9966 189.504 12.5759L183.5 17.9045C183.229 18.1451 183.109 18.5135 183.187 18.8674L184.912 26.7076C185.1 27.5599 184.182 28.2267 183.429 27.7849L176.506 23.7211C176.194 23.5377 175.806 23.5377 175.494 23.7211L168.571 27.7849C167.818 28.2267 166.9 27.5599 167.088 26.7076L168.813 18.8674C168.891 18.5135 168.771 18.1451 168.5 17.9045L162.496 12.5759C161.843 11.9966 162.194 10.9177 163.062 10.8327L171.052 10.051C171.413 10.0157 171.726 9.78805 171.871 9.45592L175.084 2.09886Z" fill="#D9D9D9"></path>
</mask>
<g mask="url(#mask0_1663_10478)">
<rect x="152" y="-4" width="24" height="32" fill="#FF6B00"></rect>
</g>
</svg>