<svg width="64" height="64" viewBox="0 0 64 64" fill="none" xmlns="http://www.w3.org/2000/svg">
<path d="M12 12C12 9.79086 13.7909 8 16 8H48C50.2091 8 52 9.79086 52 12V52C52 54.2091 50.2091 56 48 56H16C13.7909 56 12 54.2091 12 52V12Z" fill="#3B88FB"/>
<path d="M12 40H52V52C52 54.2091 50.2091 56 48 56H16C13.7909 56 12 54.2091 12 52V40Z" fill="#397EE5"/>
<path d="M12 12C12 9.79086 13.7909 8 16 8H48C50.2091 8 52 9.79086 52 12V24H12V12Z" fill="#4C92FF"/>
<g filter="url(#filter0_d_1029_9691)">
<path d="M19 33C19 30.7909 20.7909 29 23 29H37C39.2091 29 41 30.7909 41 33V41C41 43.2091 39.2091 45 37 45H23C20.7909 45 19 43.2091 19 41V33Z" fill="white"/>
</g>
<circle cx="30" cy="35" r="2" fill="#3B88FB"/>
<path d="M29.1998 36H30.7998L30.96 40.0008C30.9818 40.546 30.5457 41 30 41C29.4543 41 29.0181 40.5461 29.0399 40.0008L29.1998 36Z" fill="#3B88FB"/>
<path d="M34 30V23C34 19.6863 36.6863 17 40 17V17C43.3137 17 46 19.6863 46 23V27.3797" stroke="white" stroke-width="2" stroke-linecap="round"/>
<defs>
<filter id="filter0_d_1029_9691" x="16" y="27" width="28" height="22" filterUnits="userSpaceOnUse" color-interpolation-filters="sRGB">
<feFlood flood-opacity="0" result="BackgroundImageFix"/>
<feColorMatrix in="SourceAlpha" type="matrix" values="0 0 0 0 0 0 0 0 0 0 0 0 0 0 0 0 0 0 127 0" result="hardAlpha"/>
<feOffset dy="1"/>
<feGaussianBlur stdDeviation="1.5"/>
<feComposite in2="hardAlpha" operator="out"/>
<feColorMatrix type="matrix" values="0 0 0 0 0.1616 0 0 0 0 0.654332 0 0 0 0 0.565794 0 0 0 0.4 0"/>
<feBlend mode="normal" in2="BackgroundImageFix" result="effect1_dropShadow_1029_9691"/>
<feBlend mode="normal" in="SourceGraphic" in2="effect1_dropShadow_1029_9691" result="shape"/>
</filter>
</defs>
</svg>
